<svg id="Layer_1" data-name="Layer 1" xmlns="http://www.w3.org/2000/svg" viewBox="0 0 157.99 189.43"><defs><style>.cls-1{fill:#6d2da6;}</style></defs><path class="cls-1" d="M92,112.91c-4.3,6.17-10.33,11.23-16.13,16.42-7.41,6.65-14.08,13.85-17.12,22.82-2.74,8.07-1.69,15.93,1.84,23.69,2.68,5.93,6,11.61,8.68,17.55-4.15-13.3,4-26.14,10.8-38.22a77.25,77.25,0,0,0,8.62-22C90.11,126.5,90.37,119.55,92,112.91Z" transform="translate(-10.47 -3.96)"/><path class="cls-1" d="M90.45,95.23c-2.12,1.25-4.29,2.43-6.55,3.51,1.19-.52,2.36-1.1,3.52-1.73S89.45,95.85,90.45,95.23Z" transform="translate(-10.47 -3.96)"/><path class="cls-1" d="M35.71,163.13c1.86-13.65,14.4-24.66,26.44-33.78,15.06-11.41,34.56-22.86,40-40.4,0,0,0,0,0,0l-.54-.62c-3.72,2.34-7.34,4.72-11.09,6.91a.08.08,0,0,0-.06,0c-1,.62-2,1.22-3,1.78s-2.32,1.21-3.51,1.73a.22.22,0,0,1-.1,0l-.13.06a81.18,81.18,0,0,1-16.23,4.83C56,106.06,44.53,108.53,37,116.88,24.79,130.31,37.81,176.79,35.71,163.13Z" transform="translate(-10.47 -3.96)"/><path class="cls-1" d="M17.07,82.43h-.15l0,.22c14.35.31,28.24-6.12,38.39-14.43,8.24-6.76,13.2-14.61,17.62-23.47C79,32.53,86,14,102.92,10.13c-14-5.42-29.2.54-39.13,9.55-16,14.67-11.31,23.67-24.45,45.23C35,72.14,27.76,82.29,16.92,82.37c-.06,0-.05.06,0,.07Z" transform="translate(-10.47 -3.96)"/><path class="cls-1" d="M150.13,17.89c9.24,5.93,7.83,17.66-.12,24.68,8.56-1.77,18.5-4.19,18.45-18.53,0-12.6-15.82-20.49-29.32-20.06-16.19.5-32.4,9.86-42.31,20.25C75.1,47,82.74,59.92,42.22,79.61c-7.84,3.81-15.54,7.67-21.67,12.78C14.85,97.13,10.21,104,10.48,111c.33,8.44,6.76,15,13.55,20.66.13.12.32-.08.18-.2l-.35-.3h0l.38-.3a.09.09,0,0,0,.08-.06C23.13,123.89,26,116,31.1,110.64c4.33-4.6,10.74-7.32,17.15-9.19,13.31-3.9,28.19-3.56,40.73-9.33,17.52-8.06,20.2-24.52,23.42-40.44,1.63-8,3.37-15.83,7.2-22.42C125.24,19.4,139.74,11.23,150.13,17.89Zm-138,99.18c1.74,4.24,4.92,7.94,8.52,11.28C17,125,13.86,121.31,12.12,117.07Z" transform="translate(-10.47 -3.96)"/><path class="cls-1" d="M148.53,62.69c4.12-.35,5.88-1.63,5.88-1.63a54.57,54.57,0,0,1-6.18-.48c0-.07,9.35-44.31-15.48-36.3-4.3,1.39-13.82,9.22-16.64,27.43s-3,34.36-8.66,43.46c-4.46,7.21-7.9,10.76-8.75,15.16.18-.2.35-.4.53-.58.4-.43.81-.84,1.24-1.22a16.59,16.59,0,0,1,6.4-3.78,7.7,7.7,0,0,1,3.67.06c7.28,2.91,24.64,9.53,30.93,4,3.75-3.3.73-8.69,2-10.07s5-2.88,4.88-4.35-4.67-2.46-4.18-3.07,8-1.09,7.07-3.25c-1.56-3.58-4-3.95-3.3-5.66,1-2.61,6.59-1.59,9.48-4,3.64-3-.31-3.25-5.3-9.36A16.21,16.21,0,0,1,148.53,62.69Z" transform="translate(-10.47 -3.96)"/><path class="cls-1" d="M91,115.06c-.62,3-1,6-1.4,9s-.79,6.08-1.41,9.06A76.07,76.07,0,0,1,79.64,155l-1.54,2.74c-5.74,10.16-11.65,20.63-10.22,31.54-.83-1.67-1.68-3.32-2.52-4.94-1.45-2.82-3-5.73-4.28-8.65-3.76-8.27-4.36-15.93-1.82-23.41,3.18-9.37,10.38-16.7,17-22.64l2-1.76c4.5-4,9.14-8.12,12.81-12.81m1-2.15c-4.3,6.17-10.33,11.23-16.13,16.42-7.41,6.65-14.08,13.85-17.12,22.82-2.74,8.07-1.69,15.93,1.84,23.69,2.68,5.93,6,11.61,8.68,17.55-4.15-13.3,4-26.14,10.79-38.22a77,77,0,0,0,8.63-22c1.39-6.7,1.65-13.65,3.31-20.29Z" transform="translate(-10.47 -3.96)"/><path class="cls-1" d="M90.45,95.23c-2.12,1.25-4.29,2.43-6.55,3.51,1.19-.52,2.36-1.1,3.52-1.73s2-1.16,3-1.78Z" transform="translate(-10.47 -3.96)"/><path class="cls-1" d="M101.51,88.9l.09.1C97.05,103.45,83,113.59,69.49,123.4c-2.67,1.93-5.2,3.76-7.67,5.64-11.93,9-24.36,20-26.52,33.41a114.41,114.41,0,0,1-2.79-17.58c-.75-9.37-.52-21.8,4.86-27.73,7.53-8.32,19.05-10.73,30.2-13.06A82.39,82.39,0,0,0,83.92,99.2l0,0h0l.15,0c1.16-.51,2.36-1.1,3.55-1.75q1.52-.84,3-1.77h0l.06,0c2.75-1.6,5.48-3.34,8.12-5l2.59-1.64m.1-.6c-3.72,2.34-7.34,4.72-11.09,6.91a.08.08,0,0,0-.06,0c-1,.62-2,1.22-3,1.78s-2.32,1.21-3.51,1.73a.22.22,0,0,1-.1,0l-.13.06a81.18,81.18,0,0,1-16.23,4.83C56,106.06,44.53,108.53,37,116.88c-10.65,11.74-2,48.74-1.12,48.74.14,0,.11-.77-.15-2.49,1.86-13.65,14.4-24.66,26.44-33.78,15.06-11.41,34.56-22.86,40-40.4,0,0,0,0,0,0l-.54-.62Z" transform="translate(-10.47 -3.96)"/><path class="cls-1" d="M91.71,8.49a30.62,30.62,0,0,1,9.74,1.57C87.09,14.12,80.17,28.55,74.58,40.2c-.74,1.54-1.44,3-2.14,4.39-3.93,7.89-8.78,16.17-17.51,23.33-10,8.16-21.85,13.2-33.16,14.16,8.29-2.44,14.14-10.59,18-17a103.38,103.38,0,0,0,10-21.87C52.67,35,55,28.43,64.15,20c8-7.29,18.09-11.48,27.56-11.48m0-.42c-10.45,0-20.61,5-27.92,11.61-16,14.67-11.31,23.67-24.45,45.23C35,72.14,27.76,82.29,16.92,82.37c-.06,0-.05.06,0,.07h0l0,.22h1c14,0,27.48-6.32,37.4-14.44,8.24-6.76,13.2-14.61,17.62-23.47C79,32.53,86,14,102.92,10.13A30.85,30.85,0,0,0,91.71,8.07Z" transform="translate(-10.47 -3.96)"/><path class="cls-1" d="M140.19,4.39h0c13.38,0,27.73,7.9,27.77,19.66,0,13.43-8.75,16.12-16.49,17.78,3.91-4,5.95-9.07,5.5-13.92a13.54,13.54,0,0,0-6.54-10.36A15.89,15.89,0,0,0,141.67,15c-9.51,0-18.53,7.06-22.52,14-3.77,6.5-5.51,14.06-7.24,22.54l-.37,1.83c-3,15.07-6.16,30.65-22.8,38.31C81.4,95.12,73.06,96.42,65,97.67A132.92,132.92,0,0,0,48.09,101c-8.09,2.36-13.61,5.33-17.38,9.33-5.28,5.62-8,13.55-6.92,20.27l-.15.12c-1-.81-1.92-1.65-2.86-2.52l.23-.18c-4.24-3.92-6.91-7.46-8.42-11.13l-.28.08A17.59,17.59,0,0,1,11,111c-.24-6.1,3.47-12.94,9.92-18.3,6-5,13.29-8.69,21.56-12.72C69,67.07,75.05,57,82,45.29c3.78-6.35,7.69-12.91,15.21-20.79,8.52-8.94,24.61-19.56,41.94-20.1h1m0-.43-1.05,0c-16.19.5-32.4,9.86-42.31,20.25C75.1,47,82.74,59.92,42.22,79.61c-7.84,3.81-15.54,7.67-21.67,12.78C14.85,97.13,10.21,104,10.48,111c.33,8.44,6.76,15,13.55,20.66a.12.12,0,0,0,.09,0,.14.14,0,0,0,.09-.24l-.35-.3h0l.38-.3h0a.08.08,0,0,0,.08-.06C23.13,123.89,26,116,31.1,110.64c4.33-4.6,10.74-7.32,17.15-9.19,13.31-3.9,28.19-3.56,40.73-9.33,17.52-8.06,20.2-24.52,23.42-40.44,1.63-8,3.37-15.83,7.2-22.42,4.21-7.37,13.38-13.79,22.07-13.79a15.41,15.41,0,0,1,8.46,2.42c9.24,5.93,7.83,17.66-.12,24.68,8.56-1.77,18.5-4.19,18.45-18.53,0-12.27-15-20.08-28.27-20.08ZM20.64,128.35c-3.61-3.34-6.78-7-8.52-11.28,1.74,4.24,4.92,7.94,8.52,11.28Z" transform="translate(-10.47 -3.96)"/><path class="cls-1" d="M138.26,23.74a8.83,8.83,0,0,1,6.53,2.59c7.86,7.92,3.49,31.43,3,34.08a.65.65,0,0,0,0,.19l0,.34.4.06c1.5.2,3,.34,4.46.42a16.28,16.28,0,0,1-4.13.84l-.55.05.11.46a16.71,16.71,0,0,0,3.64,6.55,38.16,38.16,0,0,0,4.56,4.61c2.29,2,2.83,2.51.8,4.19a10.74,10.74,0,0,1-4.81,1.73c-2.14.41-4.16.81-4.79,2.43-.44,1.12.2,1.8,1,2.65a10.6,10.6,0,0,1,2.28,3.29.45.45,0,0,1,0,.45c-.48.77-3,1.29-4.59,1.63s-2.15.46-2.4.78a.53.53,0,0,0-.11.48c.13.43.76.72,1.73,1.16s2.43,1.11,2.47,1.7-1.33,1.57-2.54,2.36a11.85,11.85,0,0,0-2.24,1.7c-.57.64-.45,1.74-.29,3.14.25,2.2.57,4.94-1.64,6.89-1.52,1.33-3.87,2-7,2-7.26,0-16.81-3.48-23.36-6.1h-.08a9.32,9.32,0,0,0-2.16-.27,7.94,7.94,0,0,0-1.77.2c-2.57.59-5.26,2.7-6.64,3.9l-.4.38A35.69,35.69,0,0,1,104,101.3c1.16-1.7,2.48-3.63,3.91-5.93,4.13-6.68,5.37-17.11,6.81-29.2.55-4.63,1.12-9.41,1.9-14.4,2.91-18.84,12.77-25.94,16.32-27.09a17.74,17.74,0,0,1,5.33-.94m0-.43a18.2,18.2,0,0,0-5.51,1c-4.3,1.39-13.82,9.22-16.64,27.43s-3,34.36-8.66,43.46c-4.46,7.21-7.9,10.76-8.75,15.16.18-.2.35-.4.53-.58.4-.43.81-.84,1.24-1.22a16.59,16.59,0,0,1,6.4-3.78,6.69,6.69,0,0,1,1.64-.2,8.62,8.62,0,0,1,2,.26c5.26,2.1,15.77,6.13,23.57,6.13,3,0,5.61-.6,7.36-2.13,3.75-3.3.73-8.69,2-10.07s5-2.88,4.88-4.35-4.67-2.46-4.18-3.07,8-1.09,7.07-3.25c-1.56-3.58-4-3.95-3.3-5.66,1-2.61,6.59-1.59,9.48-4,3.64-3-.31-3.25-5.3-9.36a16.21,16.21,0,0,1-3.56-6.38c4.12-.35,5.88-1.63,5.88-1.63a54.57,54.57,0,0,1-6.18-.48c0-.07,7.86-37.27-10-37.27Z" transform="translate(-10.47 -3.96)"/></svg>