<svg id="Layer_1" data-name="Layer 1" xmlns="http://www.w3.org/2000/svg" viewBox="0 0 431.59 221.98"><defs><style>.cls-1{fill:#fff;}</style></defs><path class="cls-1" d="M194.57,143.08c-4.31,7.22-10.34,13.15-16.14,19.24-7.4,7.79-14.07,16.23-17.12,26.74-2.73,9.46-1.69,18.66,1.84,27.76,2.68,7,6,13.61,8.68,20.57-4.15-15.59,4.06-30.64,10.8-44.79a100.39,100.39,0,0,0,8.63-25.75C192.65,159,192.91,150.86,194.57,143.08Z" transform="translate(-9.46 -15.41)"/><path class="cls-1" d="M193,122.37c-2.13,1.46-4.29,2.84-6.55,4.1,1.19-.61,2.36-1.29,3.51-2S192,123.08,193,122.37Z" transform="translate(-9.46 -15.41)"/><path class="cls-1" d="M138.24,201.93c1.86-16,14.4-28.9,26.44-39.58,15.06-13.38,34.56-26.8,40-47.34,0,0,0,0,0,0l-.53-.73c-3.73,2.75-7.34,5.53-11.1,8.09l-.06,0c-1,.71-2,1.42-3,2.08-1.16.73-2.33,1.41-3.52,2l-.1,0-.13.07A72.71,72.71,0,0,1,170,132.24c-11.44,2.81-22.92,5.7-30.48,15.49C127.33,163.47,140.34,217.93,138.24,201.93Z" transform="translate(-9.46 -15.41)"/><path class="cls-1" d="M119.61,107.36h-.16l0,.26c14.34.36,28.23-7.17,38.38-16.91,8.24-7.92,13.2-17.12,17.63-27.5,6.12-14.33,13-36,30-40.58-14-6.35-29.21.63-39.14,11.19-16,17.2-11.31,27.74-24.44,53-4.4,8.46-11.58,20.35-22.43,20.45,0,0,0,.08,0,.08Z" transform="translate(-9.46 -15.41)"/><path class="cls-1" d="M252.66,31.73c9.24,7,7.84,20.7-.12,28.93,8.57-2.08,18.5-4.92,18.46-21.72-.05-14.76-15.83-24-29.33-23.51C225.49,16,209.27,27,199.36,39.16c-21.73,26.71-14.09,41.82-54.61,64.9-7.83,4.46-15.53,9-21.66,15-5.7,5.55-10.35,13.63-10.07,21.82.32,9.89,6.75,17.64,13.54,24.21.14.15.32-.09.19-.23l-.35-.36h0l.38-.36a.08.08,0,0,0,.08-.07c-1.18-8.11,1.71-17.31,6.79-23.63,4.32-5.4,10.73-8.58,17.14-10.77,13.31-4.57,28.19-4.17,40.73-10.93C209,109.27,211.71,90,214.93,71.33c1.63-9.34,3.38-18.55,7.2-26.28C227.78,33.5,242.28,23.93,252.66,31.73ZM114.66,148a38.73,38.73,0,0,0,8.52,13.22A38.43,38.43,0,0,1,114.66,148Z" transform="translate(-9.46 -15.41)"/><path class="cls-1" d="M251.06,84.23c4.12-.41,5.88-1.91,5.88-1.91a44,44,0,0,1-6.17-.57c0-.07,9.34-51.92-15.49-42.53C231,40.85,221.46,50,218.64,71.37s-3,40.26-8.65,50.93c-4.46,8.44-7.9,12.6-8.75,17.76.17-.23.34-.47.52-.69.4-.5.82-1,1.24-1.43,1.76-1.8,4.2-3.84,6.41-4.43a6.68,6.68,0,0,1,3.66.07c7.29,3.41,24.64,11.17,30.93,4.69,3.75-3.87.74-10.18,2-11.8s5-3.37,4.88-5.09-4.67-2.88-4.18-3.6,8-1.27,7.07-3.81c-1.55-4.19-4-4.63-3.29-6.63,1-3.06,6.58-1.86,9.47-4.67,3.64-3.53-.3-3.8-5.29-11A20.26,20.26,0,0,1,251.06,84.23Z" transform="translate(-9.46 -15.41)"/><path class="cls-1" d="M193.57,145.59c-.61,3.51-1,7.08-1.4,10.56s-.79,7.12-1.41,10.61a98.73,98.73,0,0,1-8.58,25.63l-1.55,3.21c-5.74,11.91-11.65,24.17-10.21,37-.83-1.95-1.69-3.89-2.53-5.8-1.45-3.29-2.95-6.7-4.27-10.12-3.77-9.7-4.37-18.67-1.83-27.44,3.18-11,10.38-19.57,17-26.53l2-2.06c4.5-4.69,9.14-9.52,12.81-15m1-2.51c-4.31,7.22-10.34,13.15-16.14,19.24-7.41,7.79-14.07,16.23-17.12,26.74-2.73,9.46-1.69,18.66,1.84,27.76,2.68,7,6,13.61,8.68,20.57-4.15-15.59,4.06-30.64,10.8-44.79a100.39,100.39,0,0,0,8.63-25.75c1.39-7.85,1.65-16,3.31-23.77Z" transform="translate(-9.46 -15.41)"/><path class="cls-1" d="M193,122.37c-2.13,1.46-4.29,2.84-6.55,4.1,1.19-.61,2.36-1.29,3.51-2s2-1.36,3-2.07Z" transform="translate(-9.46 -15.41)"/><path class="cls-1" d="M204,114.94l.09.12c-4.54,16.94-18.55,28.82-32.1,40.31-2.68,2.27-5.21,4.41-7.68,6.61-11.92,10.57-24.35,23.47-26.51,39.15a153.53,153.53,0,0,1-2.79-20.6c-.76-11-.53-25.54,4.86-32.5,7.52-9.74,19.05-12.57,30.2-15.3A74,74,0,0,0,186.45,127l.05,0h0l.15-.06c1.17-.6,2.36-1.29,3.56-2.06q1.5-1,3-2.07h0l.05,0c2.76-1.88,5.49-3.92,8.13-5.88l2.58-1.93m.11-.7c-3.73,2.75-7.34,5.53-11.1,8.09l-.06,0c-1,.71-2,1.42-3,2.08-1.16.73-2.33,1.41-3.52,2l-.1,0-.13.07A72.71,72.71,0,0,1,170,132.24c-11.44,2.81-22.92,5.7-30.48,15.49-10.65,13.76-2,57.11-1.11,57.11.13,0,.1-.89-.16-2.91,1.86-16,14.41-28.9,26.44-39.58,15.06-13.38,34.56-26.8,40-47.34,0,0,0,0,0,0l-.53-.73Z" transform="translate(-9.46 -15.41)"/><path class="cls-1" d="M194.25,20.72A26.54,26.54,0,0,1,204,22.56c-14.37,4.76-21.29,21.66-26.88,35.32-.74,1.8-1.44,3.51-2.13,5.14C171,72.26,166.19,82,157.46,90.36c-10,9.56-21.85,15.47-33.16,16.59,8.29-2.86,14.15-12.41,18-19.88a131.11,131.11,0,0,0,10-25.63c2.89-9.7,5.18-17.35,14.38-27.27,8-8.55,18.08-13.45,27.56-13.45m0-.5c-10.45,0-20.61,5.84-27.93,13.61-16,17.2-11.31,27.74-24.44,53-4.4,8.46-11.58,20.35-22.43,20.45,0,0,0,.08,0,.08h0l0,.26h1c14,0,27.48-7.41,37.4-16.92,8.24-7.92,13.2-17.12,17.63-27.5,6.11-14.33,13-36,30-40.58a27,27,0,0,0-11.21-2.42Z" transform="translate(-9.46 -15.41)"/><path class="cls-1" d="M242.73,15.91h0c13.38,0,27.73,9.26,27.77,23,0,15.74-8.75,18.89-16.5,20.84a23,23,0,0,0,5.5-16.32A16.33,16.33,0,0,0,253,31.33a14.31,14.31,0,0,0-8.77-2.93c-9.51,0-18.53,8.27-22.52,16.43-3.77,7.62-5.51,16.47-7.24,26.42l-.37,2.14c-3,17.66-6.15,35.92-22.8,44.89-7.34,4-15.67,5.47-23.73,6.94a117.23,117.23,0,0,0-16.92,3.95c-8.09,2.77-13.61,6.24-17.37,10.94-5.29,6.58-8,15.87-6.93,23.75l-.14.14c-1-.95-1.93-1.93-2.87-2.95l.23-.21c-4.23-4.61-6.91-8.75-8.41-13.06l-.29.1a23.62,23.62,0,0,1-1.32-7c-.24-7.15,3.47-15.17,9.92-21.44,5.95-5.82,13.28-10.19,21.56-14.91,26.57-15.13,32.58-27,39.54-40.65,3.79-7.44,7.7-15.13,15.21-24.36,8.52-10.47,24.62-22.92,41.94-23.55l1,0m0-.5-1.06,0C225.49,16,209.27,27,199.36,39.16c-21.73,26.71-14.09,41.82-54.61,64.9-7.83,4.46-15.53,9-21.66,15-5.7,5.55-10.35,13.63-10.07,21.82.32,9.89,6.75,17.64,13.54,24.21a.14.14,0,0,0,.09.05.17.17,0,0,0,.1-.28l-.35-.36h0l.38-.36h0a.08.08,0,0,0,.07-.07c-1.18-8.11,1.71-17.31,6.79-23.63,4.32-5.4,10.73-8.58,17.14-10.77,13.31-4.57,28.19-4.17,40.73-10.93C209,109.27,211.71,90,214.93,71.33c1.63-9.34,3.38-18.55,7.2-26.28,4.22-8.63,13.38-16.15,22.07-16.15a13.74,13.74,0,0,1,8.46,2.83c9.24,7,7.84,20.7-.12,28.93,8.57-2.08,18.5-4.92,18.46-21.72-.05-14.38-15-23.53-28.27-23.53ZM123.18,161.17A38.43,38.43,0,0,1,114.66,148a38.73,38.73,0,0,0,8.52,13.22Z" transform="translate(-9.46 -15.41)"/><path class="cls-1" d="M240.79,38.59a8.21,8.21,0,0,1,6.53,3c7.86,9.29,3.49,36.83,3,39.94a.68.68,0,0,0,0,.22v.4l.41.07c1.5.24,3,.4,4.46.49a14.36,14.36,0,0,1-4.14,1l-.55,0,.11.55A20.74,20.74,0,0,0,254.22,92a41.83,41.83,0,0,0,4.55,5.41c2.29,2.37,2.84,2.93.81,4.9-1.25,1.21-3.06,1.63-4.82,2-2.13.48-4.15.94-4.79,2.84-.43,1.32.21,2.11,1,3.11a12.67,12.67,0,0,1,2.29,3.86.59.59,0,0,1,0,.52c-.48.91-2.95,1.52-4.59,1.92s-2.15.54-2.4.91a.7.7,0,0,0-.1.56c.12.5.76.84,1.72,1.36s2.43,1.3,2.47,2-1.33,1.84-2.54,2.77a12.2,12.2,0,0,0-2.24,2c-.57.75-.44,2-.28,3.68.25,2.58.56,5.79-1.65,8.07-1.51,1.56-3.87,2.35-7,2.35-7.25,0-16.8-4.07-23.35-7.14l0,0h0a8.17,8.17,0,0,0-2.17-.31,6.45,6.45,0,0,0-1.76.24c-2.58.69-5.26,3.15-6.64,4.57l-.41.44a44.52,44.52,0,0,1,4.29-8.56c1.17-2,2.49-4.25,3.91-6.95,4.14-7.83,5.38-20.06,6.82-34.22.55-5.42,1.12-11,1.89-16.88,2.91-22.07,12.77-30.39,16.32-31.74a15.33,15.33,0,0,1,5.33-1.1m0-.5a15.68,15.68,0,0,0-5.51,1.13C231,40.85,221.46,50,218.64,71.37s-3,40.26-8.65,50.93c-4.46,8.44-7.9,12.6-8.75,17.76.17-.23.34-.47.52-.69.4-.5.82-1,1.24-1.43,1.76-1.8,4.2-3.84,6.41-4.43a5.76,5.76,0,0,1,1.63-.22,7.72,7.72,0,0,1,2,.29c5.26,2.46,15.77,7.19,23.57,7.19,3,0,5.61-.7,7.36-2.5,3.75-3.87.74-10.18,2-11.8s5-3.37,4.88-5.09-4.67-2.88-4.18-3.6,8-1.27,7.07-3.81c-1.55-4.19-4-4.63-3.29-6.63,1-3.06,6.58-1.86,9.47-4.67,3.64-3.53-.3-3.8-5.29-11a20.26,20.26,0,0,1-3.57-7.48c4.12-.41,5.88-1.91,5.88-1.91a44,44,0,0,1-6.17-.57c0-.07,7.85-43.66-10-43.66Z" transform="translate(-9.46 -15.41)"/><path class="cls-1" d="M254.82,182.35,316.39,15.86h17.22l-61.5,166.49Z" transform="translate(-9.46 -15.41)"/><path class="cls-1" d="M9.46,101.4,108.38,48V67L28.53,109.2,108.38,153v19L9.46,117.44Z" transform="translate(-9.46 -15.41)"/><path class="cls-1" d="M441.05,114.85l-98.93,53.44V149.16L422,107,342.12,63.2V44.28l98.93,54.53Z" transform="translate(-9.46 -15.41)"/></svg>